<?xml version="1.0" encoding="UTF-8"?>
<svg id="Layer_1" data-name="Layer 1" xmlns="http://www.w3.org/2000/svg" version="1.1" viewBox="0 0 60 60">
  <defs>
    <style>
      .cls-1 {
        fill: #231f20;
        stroke-width: 0px;
      }
    </style>
  </defs>
  <path class="cls-1" d="M30,2.21c-.59,3.21-1.07,3.69-4.28,4.28,3.21.59,3.69,1.07,4.28,4.28.59-3.21,1.07-3.69,4.28-4.28-3.21-.59-3.69-1.07-4.28-4.28Z"/>
  <path class="cls-1" d="M52.91,36.05c-3.99-2.06-8.8-1.66-12.63.52,0,0,0,0,0,0-1.25.6-3.31,1.31-3.42-.47,0,0,0-.01,0-.02.11-2.54,5.41-3.41,7.62-4.32,3.88-1.33,8.4-2.8,10.67-6.43,2.01-3.24,1.26-8.47-2.37-10.26-3.64-2-7.93-1.88-12.13-1.56-4.36.47-9.25.69-13.59.53,0,0-4.87.02-7.08-.3-6.08-.78-13.77-.13-16.99,5.51-3.21,5.24-1.87,13.16,4.12,15.81,3.99,2.06,8.8,1.66,12.63-.52,0,0,0,0,0,0,1.25-.6,3.31-1.31,3.42.47,0,0,0,.01,0,.02-.11,2.54-5.41,3.41-7.62,4.32-3.88,1.33-8.4,2.8-10.67,6.43-2.01,3.24-1.26,8.47,2.37,10.26,3.64,2,7.93,1.88,12.13,1.56,4.36-.47,9.25-.69,13.59-.53,0,0,4.87-.02,7.08.3,6.08.78,13.77.13,16.99-5.51,3.21-5.24,1.87-13.16-4.12-15.81ZM25.42,55.98c0,.06-.04.11-.09.13-4.02,1.21-8.53,1.6-12.58.34-4.63-1.22-6.91-6.31-4.12-10.34,2.52-3.38,7.18-4.84,10.78-6.73,1.98-1.09,4.09-2.16,4.16-4.43,0,0,0-.01,0-.02-.11-2.17-2.72-1.45-4.14-.83,0,0,0,0,0,0-6.23,3.3-11.75,2.43-13.97-4.9-3.3-13.17,9.62-17.75,20.19-13.7.05.02.09.07.08.12l-.31,40.36ZM30.87,35.56c-.03,3.38,0,12.2-.56,16.36-.02.17-.61.17-.63,0-.59-4.15-.55-12.97-.55-16.36s-.02-12.33.56-16.46c.02-.17.61-.17.63,0,.61,4.09.58,12.98.55,16.46ZM34.27,55.49l.31-40.36c0-.06.04-.11.09-.13,4.02-1.21,8.53-1.6,12.58-.34,4.63,1.22,6.91,6.31,4.12,10.34-2.52,3.38-7.18,4.84-10.78,6.73-1.98,1.09-4.09,2.16-4.16,4.43,0,0,0,.01,0,.02.11,2.17,2.72,1.45,4.14.83,0,0,0,0,0,0,6.23-3.3,11.75-2.43,13.97,4.9,3.3,13.17-9.62,17.75-20.19,13.7-.05-.02-.09-.07-.08-.12Z"/>
</svg>