<?xml version="1.0" encoding="UTF-8"?>
<svg id="Layer_1" data-name="Layer 1" xmlns="http://www.w3.org/2000/svg" version="1.1" viewBox="0 0 250 120">
  <defs>
    <style>
      .cls-1 {
        fill: #231f20;
        stroke-width: 0px;
      }
    </style>
  </defs>
  <path class="cls-1" d="M30.04,98.89h-1.72l-6.92-10.49v10.49h-1.72v-13.2h1.72l6.92,10.48v-10.48h1.72v13.2Z"/>
  <path class="cls-1" d="M40.85,85.71v8.34c0,1.17.29,2.04.86,2.61.57.57,1.37.85,2.39.85s1.8-.28,2.37-.85c.57-.57.86-1.44.86-2.61v-8.34h1.72v8.32c0,1.1-.22,2.03-.66,2.77-.44.75-1.04,1.31-1.79,1.67-.75.37-1.59.55-2.52.55s-1.78-.18-2.53-.55c-.75-.37-1.34-.92-1.78-1.67-.43-.75-.65-1.67-.65-2.77v-8.32h1.72Z"/>
  <path class="cls-1" d="M66.25,85.71v1.39h-3.6v11.79h-1.72v-11.79h-3.61v-1.39h8.93Z"/>
  <path class="cls-1" d="M81.51,98.89l-3.14-5.39h-2.08v5.39h-1.72v-13.18h4.26c1,0,1.84.17,2.53.51.69.34,1.2.8,1.54,1.38.34.58.51,1.24.51,1.99,0,.91-.26,1.71-.79,2.4-.52.69-1.31,1.15-2.35,1.38l3.31,5.52h-2.06ZM76.28,92.12h2.53c.93,0,1.63-.23,2.1-.69.47-.46.7-1.08.7-1.85s-.23-1.39-.69-1.82c-.46-.43-1.16-.64-2.1-.64h-2.53v4.99Z"/>
  <path class="cls-1" d="M93.98,85.71v13.18h-1.72v-13.18h1.72Z"/>
  <path class="cls-1" d="M102.47,92.29c0-1.29.29-2.44.87-3.47.58-1.03,1.37-1.83,2.37-2.41,1-.58,2.12-.88,3.34-.88,1.43,0,2.69.35,3.76,1.04,1.07.69,1.85,1.68,2.34,2.95h-2.06c-.37-.79-.89-1.4-1.58-1.83-.69-.43-1.51-.64-2.47-.64s-1.75.22-2.48.64c-.73.43-1.31,1.04-1.72,1.83-.41.79-.62,1.71-.62,2.77s.21,1.96.62,2.75c.42.79.99,1.4,1.72,1.83.73.43,1.56.64,2.48.64s1.78-.21,2.47-.64,1.21-1.03,1.58-1.83h2.06c-.49,1.26-1.27,2.24-2.34,2.93-1.07.69-2.33,1.03-3.76,1.03-1.23,0-2.34-.29-3.34-.86-1-.57-1.79-1.37-2.37-2.4-.58-1.02-.87-2.18-.87-3.46Z"/>
  <path class="cls-1" d="M125.63,85.71v13.18h-1.72v-13.18h1.72Z"/>
  <path class="cls-1" d="M140.74,99.02c-1.22,0-2.34-.29-3.35-.86-1.01-.57-1.81-1.37-2.4-2.4-.58-1.03-.88-2.18-.88-3.47s.29-2.44.88-3.47c.59-1.03,1.39-1.83,2.4-2.4,1.01-.57,2.13-.86,3.35-.86s2.36.29,3.37.86c1.01.58,1.8,1.37,2.38,2.4.58,1.02.87,2.18.87,3.48s-.29,2.46-.87,3.48c-.58,1.02-1.37,1.81-2.38,2.39-1.01.58-2.13.86-3.37.86ZM140.74,97.53c.92,0,1.75-.21,2.48-.64.74-.43,1.32-1.05,1.74-1.84.42-.79.64-1.71.64-2.76s-.21-1.98-.64-2.77c-.42-.79-.99-1.4-1.72-1.83-.73-.43-1.56-.64-2.5-.64s-1.77.22-2.5.64c-.73.43-1.31,1.04-1.73,1.83s-.64,1.71-.64,2.77.21,1.97.64,2.76c.42.79,1,1.41,1.74,1.84.74.43,1.57.64,2.49.64Z"/>
  <path class="cls-1" d="M166.19,98.89h-1.72l-6.92-10.49v10.49h-1.72v-13.2h1.72l6.92,10.48v-10.48h1.72v13.2Z"/>
  <path class="cls-1" d="M177.04,85.71v13.18h-1.72v-13.18h1.72Z"/>
  <path class="cls-1" d="M190.35,99.02c-.87,0-1.65-.15-2.34-.46-.69-.31-1.23-.74-1.62-1.29-.39-.55-.59-1.18-.6-1.91h1.83c.06.62.32,1.14.77,1.56.45.42,1.1.64,1.96.64s1.46-.2,1.94-.61c.47-.41.71-.94.71-1.58,0-.5-.14-.91-.42-1.23-.28-.32-.62-.55-1.04-.72-.41-.16-.98-.34-1.69-.53-.87-.23-1.56-.45-2.09-.68-.52-.23-.97-.58-1.34-1.07-.37-.49-.55-1.14-.55-1.96,0-.72.18-1.35.55-1.91s.88-.98,1.54-1.29c.66-.31,1.42-.46,2.28-.46,1.24,0,2.25.31,3.04.93.79.62,1.23,1.44,1.34,2.46h-1.89c-.06-.51-.33-.95-.8-1.34-.47-.38-1.09-.58-1.85-.58-.72,0-1.31.19-1.76.56-.45.37-.68.89-.68,1.56,0,.48.13.87.4,1.17.27.3.61.53,1,.69.4.16.96.33,1.68.53.87.24,1.57.48,2.1.72.53.23.99.6,1.37,1.08.38.48.57,1.14.57,1.97,0,.64-.17,1.25-.51,1.82-.34.57-.85,1.03-1.52,1.38-.67.35-1.45.53-2.36.53Z"/>
  <path class="cls-1" d="M211.59,85.71v1.39h-3.6v11.79h-1.72v-11.79h-3.61v-1.39h8.93Z"/>
  <path class="cls-1" d="M227.7,95.96h-5.75l-1.06,2.93h-1.82l4.77-13.11h1.99l4.75,13.11h-1.81l-1.06-2.93ZM227.2,94.56l-2.38-6.66-2.39,6.66h4.77Z"/>
  <path class="cls-1" d="M17.44,64.81v-.55c.08,0,.2-.06.37-.18.16-.12.31-.34.45-.67.14-.33.28-.8.4-1.43.12-.63.18-1.44.18-2.41V27.22c0-1.01-.06-1.83-.18-2.44s-.26-1.08-.4-1.4c-.14-.33-.29-.55-.45-.67-.16-.12-.29-.18-.37-.18v-.55h.55c1.83-.04,3.73-.16,5.7-.36,1.98-.2,3.84-.31,5.59-.31,3.09,0,5.69.26,7.81.77,2.12.51,3.83,1.21,5.13,2.11,1.3.89,2.24,1.96,2.8,3.2.57,1.24.86,2.59.86,4.06,0,1.26-.2,2.43-.61,3.51-.4,1.08-1.06,2.04-1.98,2.9-.92.85-2.11,1.58-3.6,2.17-1.48.59-3.3,1.01-5.46,1.25,2.16.25,4.17.66,6.04,1.26,1.87.59,3.49,1.37,4.85,2.35,1.36.98,2.44,2.14,3.23,3.48.8,1.34,1.19,2.89,1.19,4.63,0,2.4-.55,4.36-1.65,5.89-1.1,1.53-2.57,2.73-4.43,3.61-1.85.87-3.99,1.48-6.43,1.83-2.44.34-5.02.51-7.75.51h-11.84ZM45.2,52.97c0-1.83-.34-3.38-1.03-4.66-.69-1.28-1.55-2.34-2.6-3.17-1.04-.84-2.2-1.5-3.48-1.98-1.28-.49-2.5-.86-3.66-1.1-1.16-.25-2.19-.4-3.09-.46-.89-.06-1.5-.09-1.82-.09h-6.35v22.76h6.1c2.97-.04,5.61-.45,7.94-1.22.97-.33,1.94-.76,2.9-1.31.95-.55,1.81-1.22,2.56-2.01.75-.8,1.37-1.75,1.83-2.87.47-1.12.7-2.41.7-3.88ZM29.28,40.95v.05c1.34,0,2.74-.14,4.18-.42,1.44-.29,2.77-.79,3.97-1.52,1.2-.74,2.19-1.72,2.99-2.96.79-1.24,1.19-2.8,1.19-4.66s-.4-3.43-1.19-4.67c-.79-1.24-1.79-2.23-2.99-2.96-1.2-.74-2.52-1.25-3.97-1.55-1.45-.31-2.84-.46-4.18-.46-.93,0-1.92.04-2.96.12-1.04.08-2.08.16-3.14.24v18.8h6.1Z"/>
  <path class="cls-1" d="M52.77,54.01c-.53-2-.65-3.97-.37-5.92.29-1.96.91-3.76,1.86-5.4.95-1.65,2.21-3.08,3.75-4.3,1.55-1.22,3.32-2.09,5.31-2.63,2.12-.57,4.15-.7,6.1-.39,1.96.3,3.72.9,5.31,1.8,1.59.89,2.95,2.03,4.09,3.42,1.14,1.38,1.95,2.89,2.44,4.51-1.47,0-3.04.06-4.73.18-1.69.12-3.22.35-4.6.67,1.14-.04,2.18.15,3.14.58.95.43,1.78,1,2.47,1.74.69.73,1.24,1.59,1.65,2.57.41.98.65,1.99.74,3.05.16,2.2-.3,4.1-1.38,5.71-1.08,1.6-2.5,2.86-4.27,3.78-1.77.92-3.75,1.44-5.95,1.59-2.2.14-4.32-.15-6.37-.88-2.05-.74-3.91-1.92-5.58-3.57-1.67-1.65-2.87-3.82-3.6-6.5ZM56.37,49.62c.12,1.18.31,2.28.55,3.29.77,2.93,1.95,5.23,3.54,6.9,1.59,1.67,3.31,2.8,5.16,3.42,1.85.61,3.71.74,5.58.4,1.87-.35,3.5-1.05,4.89-2.11,1.38-1.06,2.39-2.41,3.02-4.06.63-1.65.64-3.49.03-5.52-.33-1.1-.86-2.09-1.59-2.99-.73-.9-1.62-1.56-2.68-1.98-1.06-.43-2.26-.59-3.6-.49-1.34.1-2.77.6-4.27,1.49-1.46.85-2.89,1.45-4.3,1.8-1.41.35-2.7.48-3.88.4-.45-.04-.88-.09-1.29-.15-.4-.06-.79-.19-1.16-.4ZM76.57,44.79c-.57-1.3-1.3-2.54-2.2-3.75-.89-1.2-1.9-2.23-3.02-3.09-1.12-.85-2.35-1.46-3.69-1.83-1.34-.37-2.75-.35-4.21.06-1.38.37-2.54,1-3.48,1.89-.93.89-1.68,1.93-2.23,3.11-.55,1.18-.93,2.46-1.16,3.85-.23,1.38-.3,2.75-.21,4.09.69.33,1.5.53,2.44.61,1.14.08,2.39-.05,3.75-.4,1.36-.35,2.76-.93,4.18-1.74,1.7-.97,3.41-1.67,5.12-2.08,1.71-.41,3.27-.65,4.7-.74Z"/>
  <path class="cls-1" d="M111.55,64.81h-5.61v-17.58c0-1.1-.05-2.32-.15-3.66-.1-1.34-.36-2.6-.77-3.78-.41-1.18-1.03-2.16-1.86-2.96-.83-.8-1.98-1.19-3.45-1.19s-2.74.21-3.81.64c-1.08.43-1.94.93-2.6,1.5-.65.57-1.08,1.14-1.28,1.71-.2.57-.16,1.01.12,1.34.16.2.44.35.82.45.39.1.82.2,1.31.28.49.08,1.01.16,1.55.25.55.08,1.07.23,1.56.43,1.34.53,2.41,1.37,3.2,2.54.8,1.16,1.36,2.45,1.68,3.88.33,1.42.45,2.88.37,4.39-.08,1.51-.37,2.83-.85,3.97-.94,2.36-2.33,4.31-4.16,5.86-1.83,1.55-3.82,2.28-5.97,2.2-2.03-.08-3.68-.64-4.94-1.68-1.26-1.04-2.13-2.32-2.6-3.85-.47-1.53-.52-3.17-.15-4.94.37-1.77,1.15-3.42,2.35-4.95,1.2-1.53,2.85-2.82,4.94-3.88,2.1-1.06,4.65-1.65,7.66-1.77.08-.04.22-.06.43-.06-.61-.53-1.33-.96-2.14-1.28-.73-.29-1.52-.47-2.38-.55-.85-.08-1.66-.1-2.41-.06-.75.04-1.42.1-2.01.18-.59.08-.96.14-1.13.18-.12-.61.05-1.33.52-2.17.47-.83,1.16-1.62,2.08-2.37.91-.75,2.03-1.39,3.35-1.89,1.32-.51,2.82-.77,4.49-.77,1.95,0,3.6.31,4.94.92,1.34.61,2.42,1.44,3.23,2.5.82,1.06,1.4,2.33,1.74,3.81.35,1.49.52,3.08.52,4.79v12.33c0,1.02.05,1.83.15,2.44.1.61.23,1.09.4,1.43.16.34.33.56.49.67.16.1.29.15.37.15v.55ZM99.76,44.43c-1.63,0-3.17.2-4.61.61-1.45.4-2.71,1.03-3.78,1.89-1.08.85-1.93,1.93-2.57,3.23-.63,1.3-.94,2.83-.94,4.57,0,.86.09,1.71.28,2.57.18.85.49,1.65.91,2.38.43.73.97,1.36,1.62,1.89.65.53,1.45.87,2.38,1.03.98.2,1.9.16,2.75-.12.85-.29,1.64-.7,2.37-1.25.74-.55,1.37-1.21,1.92-1.98.55-.77.99-1.56,1.32-2.38.37-.97.62-2.02.76-3.14.14-1.12.15-2.24.03-3.35-.12-1.12-.38-2.19-.79-3.21-.41-1.01-.96-1.93-1.65-2.74Z"/>
  <path class="cls-1" d="M113.92,35.39c.25,0,.69-.06,1.34-.18.65-.12,1.31-.46,1.98-1.01.67-.55,1.26-1.39,1.77-2.5.51-1.12.77-2.67.77-4.66h4.27c0,2.44-.49,4.32-1.47,5.65-.98,1.32-2.44,2.23-4.39,2.71h9.15v.43h-5.31v17.64c0,.73.04,1.62.12,2.66.08,1.04.25,2.05.51,3.05.26,1,.65,1.9,1.16,2.72.51.81,1.19,1.36,2.05,1.65.85.28,1.69.28,2.5,0,.82-.29,1.56-.73,2.23-1.34.67-.61,1.27-1.3,1.8-2.08.53-.78.96-1.51,1.29-2.2.25-.57.48-1.17.7-1.8.22-.63.44-1.29.64-1.98h.55c-.2.73-.42,1.43-.64,2.11-.23.67-.48,1.29-.76,1.86-.37.85-.83,1.69-1.38,2.5-.55.81-1.17,1.55-1.86,2.23-.69.67-1.46,1.21-2.32,1.62-.85.4-1.79.61-2.8.61-1.67,0-3.02-.34-4.06-1.03-1.04-.69-1.85-1.59-2.44-2.69-.59-1.1-.99-2.34-1.22-3.72-.23-1.38-.34-2.77-.34-4.15v-13.92c0-1.01-.35-1.89-1.04-2.62-.69-.74-1.62-1.1-2.8-1.1v-.43Z"/>
  <path class="cls-1" d="M159.94,41.25c.32,1.55.73,2.26,1.22,2.14l.18.49-3.29,1.28-.18.06-3.18,1.23v-.55c.45-.29.75-.74.92-1.37.16-.63.25-1.23.25-1.8-.08-.69-.2-1.37-.34-2.05-.14-.67-.36-1.29-.64-1.86-.28-.57-.66-1.05-1.13-1.43-.47-.39-1.03-.62-1.68-.7-1.71-.25-3.09-.16-4.15.25-1.06.4-1.89,1.01-2.5,1.83-.61.81-1.05,1.76-1.31,2.83-.27,1.08-.42,2.19-.46,3.32v14.65c0,1.02.05,1.83.15,2.44.1.61.23,1.09.4,1.43.16.34.33.56.49.67.16.1.28.15.36.15v.55h-7.08v-.55c.12,0,.26-.05.43-.15.16-.1.32-.32.46-.67.14-.35.27-.82.39-1.43.12-.61.18-1.43.18-2.44v-18.92c0-1.02-.06-1.83-.18-2.44-.12-.61-.25-1.08-.39-1.4-.14-.33-.3-.55-.46-.67-.16-.12-.31-.18-.43-.18v-.55h5.68v5.8c.2-.85.51-1.65.91-2.41.41-.75.95-1.4,1.62-1.92.67-.53,1.5-.95,2.47-1.25.98-.31,2.16-.46,3.55-.46,2.32,0,4.1.57,5.34,1.71,1.24,1.14,2.05,2.6,2.41,4.39Z"/>
  <path class="cls-1" d="M163.72,37.59l5.74-2.2v24.17c0,1.02.05,1.83.15,2.44.1.61.23,1.09.4,1.43.16.34.33.56.49.67.16.1.28.15.36.15v.55h-7.08v-.55c.12,0,.26-.05.43-.15.16-.1.32-.32.46-.67.14-.35.27-.82.39-1.43.12-.61.18-1.43.18-2.44v-18.86c-.16-1.1-.38-1.81-.67-2.14-.29-.33-.51-.49-.67-.49l-.18-.49ZM166.89,30.45c-.82,0-1.5-.27-2.05-.82-.55-.55-.82-1.23-.82-2.05s.27-1.5.82-2.05c.55-.55,1.24-.83,2.05-.83s1.49.28,2.04.83c.55.55.83,1.23.83,2.05s-.28,1.49-.83,2.05c-.55.55-1.23.82-2.04.82Z"/>
  <path class="cls-1" d="M199.3,44.06c-.61-1.42-1.44-2.74-2.47-3.94-1.04-1.2-2.2-2.18-3.48-2.93-1.28-.75-2.69-1.24-4.21-1.47-1.53-.22-3.08-.07-4.67.46-1.71.45-3.08,1.29-4.12,2.54-1.04,1.24-1.8,2.67-2.29,4.27-.49,1.6-.72,3.28-.7,5.03.02,1.75.21,3.37.58,4.88l.18.55c.73,2.44,1.73,4.42,3.02,5.92,1.28,1.51,2.7,2.62,4.24,3.33,1.55.71,3.13,1.06,4.76,1.06s3.16-.29,4.58-.89c1.42-.59,2.64-1.44,3.66-2.54,1.01-1.1,1.69-2.38,2.01-3.85h.43c-.37,1.83-1.19,3.39-2.47,4.67-1.28,1.28-2.82,2.25-4.61,2.9-1.79.65-3.71.96-5.77.94-2.05-.02-4.02-.44-5.89-1.25-1.87-.82-3.56-2.02-5.06-3.6-1.51-1.59-2.59-3.64-3.23-6.17-.53-2-.65-3.97-.37-5.92.29-1.96.91-3.76,1.86-5.4.95-1.65,2.22-3.08,3.78-4.3,1.57-1.22,3.35-2.09,5.34-2.63,1.87-.48,3.69-.65,5.46-.51,1.77.14,3.39.42,4.86.85,1.46.43,2.71.9,3.72,1.41,1.01.51,1.69.86,2.01,1.06h.25l-.86,5.61-.54-.12Z"/>
  <path class="cls-1" d="M203.75,54.01c-.53-2-.65-3.97-.37-5.92.29-1.96.91-3.76,1.86-5.4.95-1.65,2.21-3.08,3.75-4.3,1.55-1.22,3.32-2.09,5.31-2.63,2.12-.57,4.15-.7,6.1-.39,1.96.3,3.72.9,5.31,1.8,1.59.89,2.95,2.03,4.09,3.42,1.14,1.38,1.95,2.89,2.44,4.51-1.47,0-3.04.06-4.73.18-1.69.12-3.22.35-4.6.67,1.14-.04,2.18.15,3.14.58.95.43,1.78,1,2.47,1.74.69.73,1.24,1.59,1.65,2.57.41.98.65,1.99.74,3.05.16,2.2-.3,4.1-1.38,5.71-1.08,1.6-2.5,2.86-4.27,3.78-1.77.92-3.75,1.44-5.95,1.59-2.2.14-4.32-.15-6.37-.88-2.05-.74-3.91-1.92-5.58-3.57-1.67-1.65-2.87-3.82-3.6-6.5ZM207.35,49.62c.12,1.18.31,2.28.55,3.29.77,2.93,1.95,5.23,3.54,6.9,1.59,1.67,3.31,2.8,5.16,3.42,1.85.61,3.71.74,5.58.4,1.87-.35,3.5-1.05,4.89-2.11,1.38-1.06,2.39-2.41,3.02-4.06.63-1.65.64-3.49.03-5.52-.33-1.1-.86-2.09-1.59-2.99-.73-.9-1.62-1.56-2.68-1.98-1.06-.43-2.26-.59-3.6-.49-1.34.1-2.77.6-4.27,1.49-1.46.85-2.89,1.45-4.3,1.8-1.41.35-2.7.48-3.88.4-.45-.04-.88-.09-1.29-.15-.4-.06-.79-.19-1.16-.4ZM227.55,44.79c-.57-1.3-1.3-2.54-2.2-3.75-.89-1.2-1.9-2.23-3.02-3.09-1.12-.85-2.35-1.46-3.69-1.83-1.34-.37-2.75-.35-4.21.06-1.38.37-2.54,1-3.48,1.89-.93.89-1.68,1.93-2.23,3.11-.55,1.18-.93,2.46-1.16,3.85-.23,1.38-.3,2.75-.21,4.09.69.33,1.5.53,2.44.61,1.14.08,2.39-.05,3.75-.4,1.36-.35,2.76-.93,4.18-1.74,1.7-.97,3.41-1.67,5.12-2.08,1.71-.41,3.27-.65,4.7-.74Z"/>
</svg>