<svg xmlns="http://www.w3.org/2000/svg" xmlns:xlink="http://www.w3.org/1999/xlink" width="207" zoomAndPan="magnify" viewBox="0 0 155.25 133.499994" height="178" preserveAspectRatio="xMidYMid meet" version="1.0"><defs><g/><clipPath id="ea4ba48fe6"><path d="M 69.78125 58.945312 L 84.707031 58.945312 L 84.707031 73.875 L 69.78125 73.875 Z M 69.78125 58.945312 " clip-rule="nonzero"/></clipPath></defs><g fill="#231916" fill-opacity="1"><g transform="translate(50.617362, 80.560311)"><g><path d="M 29.992188 0 C 49.042969 0 50.34375 -13.542969 50.34375 -18.058594 C 50.34375 -31.371094 39.019531 -34.660156 32.515625 -34.660156 C 31.597656 -34.660156 30.679688 -34.582031 29.6875 -34.429688 C 34.125 -36.800781 38.179688 -40.015625 38.179688 -45.21875 C 38.179688 -51.03125 32.824219 -53.558594 27.925781 -53.558594 L 2.679688 -53.558594 C 4.285156 -51.953125 4.132812 -49.121094 4.132812 -46.210938 L 4.132812 -7.34375 C 4.132812 -4.4375 4.285156 -1.605469 2.679688 0 Z M 32.441406 -33.742188 C 43.6875 -33.742188 46.75 -23.566406 46.75 -18.058594 C 46.75 -13.464844 45.449219 -0.839844 26.394531 -0.839844 L 7.421875 -0.839844 L 7.421875 -16.066406 C 9.871094 -24.40625 23.414062 -33.742188 32.441406 -33.742188 Z M 7.421875 -18.210938 L 7.421875 -52.714844 L 25.476562 -52.714844 C 29.761719 -52.714844 34.734375 -50.652344 34.734375 -45.21875 C 34.734375 -39.480469 30.835938 -36.726562 24.714844 -33.054688 C 24.332031 -32.824219 23.871094 -32.671875 23.335938 -32.441406 C 15.761719 -29.226562 8.953125 -22.648438 7.421875 -18.210938 Z M 7.421875 -18.210938 "/></g></g></g><g clip-path="url(#ea4ba48fe6)"><path fill="#231916" d="M 84.496094 66.304688 C 78.976562 67.320312 78.15625 68.144531 77.136719 73.664062 C 76.121094 68.144531 75.296875 67.320312 69.78125 66.304688 C 75.296875 65.289062 76.121094 64.464844 77.136719 58.945312 C 78.15625 64.464844 78.976562 65.289062 84.496094 66.304688 Z M 84.496094 66.304688 " fill-opacity="1" fill-rule="nonzero"/></g></svg>